<svg version="1" xmlns="http://www.w3.org/2000/svg" width="682.667" height="682.667" viewBox="0 0 512.000000 512.000000"><path d="M157.3 87.6c-4.2 2.1-6.3 6.8-6.3 14.2v5.9l-16.7.5c-20.1.6-24.6 2-31.8 10-8.1 9-7.6-.9-7.3 138.4l.3 123.9 2.2 4.1c3.4 6.3 6.6 9.7 12.5 12.9l5.3 3 94.7.3 94.7.2 3 5.3c10.1 17.6 27.5 31.1 47.8 36.9 9.9 2.9 30.2 3.1 39.9.5 36.6-10 61.3-43.8 59.1-80.7-.8-11.8-2.7-19.2-7.6-29.5-7-14.6-16.6-25.1-31-34l-6.1-3.8V214c0-91.9.4-87-7.6-95.9-7.1-7.9-11.6-9.3-31.6-9.9l-16.8-.5v-5.9c0-7.5-2.1-12.2-6.5-14.2-4.1-2-5.9-2-10 0-4.4 2.1-6.5 6.7-6.5 14.3v6.1h-67v-6.1c0-3.5-.7-7.5-1.6-9.4-1.5-3.3-6.5-6.5-9.9-6.5-3.4 0-8.4 3.2-9.9 6.5-.9 1.9-1.6 5.9-1.6 9.4v6.1h-67v-6.1c0-7.6-2.1-12.2-6.5-14.3-4.1-2-6.1-2-10.2 0zM151 137c0 10.7 3.8 16 11.5 16s11.5-5.3 11.5-16v-6h67v6c0 10.7 3.8 16 11.5 16s11.5-5.3 11.5-16v-6h67v6c0 10.7 3.8 16 11.5 16s11.5-5.3 11.5-16v-6h14.9c12.3 0 15.2.3 16.5 1.6 1.4 1.3 1.6 4.8 1.6 22.5V176H118v-20.9c0-17.7.2-21.2 1.6-22.5 1.3-1.3 4.2-1.6 16.5-1.6H151v6zm236 106.9v44.8l-10.3.1c-8.9.1-15.8 1-21.7 2.7-1.2.4-1.5-.5-1.5-3.5-.1-3.2-.8-4.8-3.2-7.2-2.6-2.6-3.9-3.1-7.8-3.1s-5.2.5-7.8 3.2c-4.4 4.3-4.5 10.6-.4 14.9l2.8 2.9-6.3 4.6c-7.1 5.1-16.1 14.1-20.3 20.5l-2.8 4.3-2.8-2.7c-2.3-2.2-3.8-2.7-7.4-2.7-3.9 0-5.2.5-7.8 3.2-2.6 2.6-3.2 3.9-3.2 7.6 0 3.7.6 5 3.2 7.7 2.5 2.5 4.1 3.2 7.3 3.3 3 0 3.9.3 3.5 1.5-1.7 5.9-2.5 11.9-2.5 21.2V378h-88.8c-67.7 0-89.1-.3-90-1.2-.9-.9-1.2-22.2-1.2-89.5V199h269v44.9zm1.1 68.5c10.6 2.3 19.4 7.1 27.4 15.1 11.6 11.6 16.5 23.6 16.5 40.2 0 15.9-5.6 28.9-17.4 40.1-11.3 10.7-22.9 15.2-39.1 15.2-15.5 0-27.4-5-38.5-16-22.6-22.4-22.4-57.8.4-80 13.3-13 32.3-18.5 50.7-14.6z"/><path d="M204.4 232.7c-1.2.2-3.4 1.8-5 3.4-2.3 2.4-2.9 3.9-2.9 7.4 0 3.7.6 5 3.3 7.7 2.7 2.7 4 3.3 7.7 3.3s5-.6 7.7-3.3c2.7-2.7 3.3-4 3.3-7.7 0-3.6-.6-5-3-7.4-3-2.9-7.2-4.2-11.1-3.4zM249.4 232.7c-1.2.2-3.4 1.8-5 3.4-2.3 2.4-2.9 3.9-2.9 7.4 0 3.7.6 5 3.3 7.7 2.7 2.7 4 3.3 7.7 3.3s5-.6 7.7-3.3c2.7-2.7 3.3-4 3.3-7.7 0-3.6-.6-5-3-7.4-3-2.9-7.2-4.2-11.1-3.4zM294.4 232.7c-1.2.2-3.4 1.8-5 3.4-2.3 2.4-2.9 3.9-2.9 7.4 0 3.7.6 5 3.3 7.7 2.7 2.7 4 3.3 7.7 3.3s5-.6 7.7-3.3c2.7-2.7 3.3-4 3.3-7.7 0-3.6-.6-5-3-7.4-3-2.9-7.2-4.2-11.1-3.4zM339.4 232.7c-1.2.2-3.4 1.8-5 3.4-2.3 2.4-2.9 3.9-2.9 7.4 0 3.7.6 5 3.3 7.7 2.7 2.7 4 3.3 7.7 3.3s5-.6 7.7-3.3c2.7-2.7 3.3-4 3.3-7.7 0-3.6-.6-5-3-7.4-3-2.9-7.2-4.2-11.1-3.4zM159.4 277.7c-1.2.2-3.4 1.8-5 3.4-2.3 2.4-2.9 3.9-2.9 7.4 0 3.7.6 5 3.3 7.7 2.7 2.7 4 3.3 7.7 3.3s5-.6 7.7-3.3c2.7-2.7 3.3-4 3.3-7.7 0-3.6-.6-5-3-7.4-3-2.9-7.2-4.2-11.1-3.4zM204.4 277.7c-1.2.2-3.4 1.8-5 3.4-2.3 2.4-2.9 3.9-2.9 7.4 0 3.7.6 5 3.3 7.7 2.7 2.7 4 3.3 7.7 3.3s5-.6 7.7-3.3c2.7-2.7 3.3-4 3.3-7.7 0-3.6-.6-5-3-7.4-3-2.9-7.2-4.2-11.1-3.4zM249.4 277.7c-1.2.2-3.4 1.8-5 3.4-2.3 2.4-2.9 3.9-2.9 7.4 0 3.7.6 5 3.3 7.7 2.7 2.7 4 3.3 7.7 3.3s5-.6 7.7-3.3c2.7-2.7 3.3-4 3.3-7.7 0-3.6-.6-5-3-7.4-3-2.9-7.2-4.2-11.1-3.4zM294.4 277.7c-1.2.2-3.4 1.8-5 3.4-2.3 2.4-2.9 3.9-2.9 7.4 0 3.7.6 5 3.3 7.7 2.7 2.7 4 3.3 7.7 3.3s5-.6 7.7-3.3c2.7-2.7 3.3-4 3.3-7.7 0-3.6-.6-5-3-7.4-3-2.9-7.2-4.2-11.1-3.4zM159.4 322.7c-1.2.2-3.4 1.8-5 3.4-2.3 2.4-2.9 3.9-2.9 7.4 0 3.7.6 5 3.3 7.7 2.7 2.7 4 3.3 7.7 3.3s5-.6 7.7-3.3c2.7-2.7 3.3-4 3.3-7.7 0-3.6-.6-5-3-7.4-3-2.9-7.2-4.2-11.1-3.4zM204.4 322.7c-1.2.2-3.4 1.8-5 3.4-2.3 2.4-2.9 3.9-2.9 7.4 0 3.7.6 5 3.3 7.7 2.7 2.7 4 3.3 7.7 3.3s5-.6 7.7-3.3c2.7-2.7 3.3-4 3.3-7.7 0-3.6-.6-5-3-7.4-3-2.9-7.2-4.2-11.1-3.4zM249.4 322.7c-1.2.2-3.4 1.8-5 3.4-2.3 2.4-2.9 3.9-2.9 7.4 0 3.7.6 5 3.3 7.7 2.7 2.7 4 3.3 7.7 3.3s5-.6 7.7-3.3c2.7-2.7 3.3-4 3.3-7.7 0-3.6-.6-5-3-7.4-3-2.9-7.2-4.2-11.1-3.4zM394.4 343.4c-2.1.9-6.1 5.5-12.4 14-5 6.9-9.4 12.6-9.7 12.6-.2 0-3.5-2.7-7.4-6-7.3-6.3-11.1-7.5-16.2-4.9-6 3.1-7.9 12.4-3.4 17.2 3.7 4.1 21 19.3 23.4 20.5 3.7 2 9.9 1.5 12.6-1.1 2.5-2.3 25.5-33.5 27.5-37.4 4.7-8.8-5.2-18.9-14.4-14.9z"/></svg>